<svg xml:space="preserve" viewBox="0.75 0 104.5 101" y="0px" x="0px" version="1.1" xmlns:xlink="http://www.w3.org/1999/xlink" xmlns="http://www.w3.org/2000/svg" style="max-height: 500px" width="104.5" height="101"><path d="M43.948,59.077c0.033,0.114,0.078,0.13,0.136,0.048c0.076,0.117-0.129,0.462-0.107,0.624  c0.033,0.25,0.289,0.527,0.419,0.734c0.297,0.474,0.633,0.97,0.693,1.541c0.085,0.81-0.291,1.337,0.07,2.128  c0.275,0.603,0.636,1.047,0.564,1.756c-0.123,1.219-1.235,2.105-1.728,3.172c-0.32,0.692-0.511,1.447-0.628,2.199  c-0.047,0.301-0.089,0.608-0.102,0.913c-0.004,0.103,0.087,0.873-0.136,0.422c0.111,0.009,0.048,1.333,0.07,1.492  c0.126,0.89,0.8,1.508,1.278,2.223c0.63,0.942,1.212,2.035,1.748,3.034c0.521,0.97,0.339,2.178,0.617,3.233  c0.267,1.011,0.297,2.105,0.682,3.082c0.392,0.996,1.206,1.718,1.758,2.615c0.578,0.938,1.166,2.038,1.487,3.096  c0.084,0.277,0.384,1.422-0.264,1.157c-0.093,0.146,0.45,2.001,0.572,2.011c0.106,0.009-0.1-0.316,0.32-0.18  c0.441,0.143,0.715,0.525,1.245,0.562c1.133,0.078,2.02-0.726,3.082-0.754c0.948-0.025,2.027,0.36,2.953,0.163  c0.433-0.092,0.306-0.215,0.602-0.35c0.275-0.126,0.604-0.126,0.91-0.194c1.949-0.433,3.603-2.161,4.721-3.723  c0.31-0.433,0.569-0.912,0.933-1.304c0.375-0.405,0.882-0.653,1.243-1.07c0.69-0.797,0.792-1.943,1.028-2.929  c-0.176,0.335-0.347,0.019-0.482-0.142c0.316,0.03,0.791-0.721,1.099-0.87c0.43-0.208,0.928-0.217,1.355-0.43  c0.196-0.097,1.653-1.019,1.256-1.237c-0.128,0.091-0.217,0.211-0.266,0.36c-0.006-0.786,0.486-1.473,0.478-2.26  c-0.009-0.794-0.488-1.476-0.571-2.248c-0.137-1.282,1.189-1.496,1.78-2.4c0.151,0.519,0.493-0.28,0.595-0.417  c0.447-0.604,1.138-0.909,1.81-1.195c1.334-0.569,2.763-1.25,3.317-2.701c0.331-0.867,0.081-1.792,0.132-2.694  c0.051-0.892,0.379-1.729,0.459-2.596c0.058-0.626-0.31-0.972-0.603-1.488c-0.448-0.788-0.646-1.673-0.581-2.574  c0.058-0.809,0.049-1.169-0.314-1.896c-0.357-0.714-0.19-1.15,0.127-1.87c0.712-1.613,1.573-2.907,2.782-4.18  c1.137-1.197,2.067-2.527,3.264-3.682c1.157-1.117,2.602-1.898,3.563-3.215c0.645-0.883,1.279-1.816,1.862-2.742  c0.473-0.751,0.719-1.6,1.082-2.404c0.41-0.91,0.98-1.775,1.119-2.784c0.062-0.45-0.096-1.373,0.587-1.4  c-0.504-0.388,0.099-2.091-0.817-1.999c-0.386,0.039-0.972,0.63-1.394,0.779c-0.541,0.192-1.169,0.272-1.473,0.833  c-0.06-0.708-0.791-0.465-1.217-0.284c-0.7,0.298-1.332,0.299-2.056,0.486c-0.82,0.212-1.307,0.592-2.05-0.056  c-0.462-0.403-0.731-1.045-1.465-0.824c-0.091-0.463,0.637-0.544,0.759-0.932c0.188-0.6-0.654-1.04-1.012-1.35  c-0.605-0.524-1.066-1.215-1.73-1.673c-0.579-0.399-1.38-0.56-1.754-1.209c-0.051,0.172-0.08,0.347-0.089,0.526  c-0.333-0.552-0.646-1.112-0.873-1.717c-0.213-0.568-0.326-1.197-0.702-1.69c-0.748-0.98-1.731-1.087-2.034-2.436  c-0.246-1.099-0.255-2.347-1.126-3.183c-0.395-0.379-0.972-0.56-1.277-1.034c-0.122-0.19-0.262-0.48-0.207-0.709  c0.089-0.367,0.116-0.028,0.276-0.245c0.076-0.103-1.126-1.38-1.257-1.551c-0.863-1.135-1.389-2.473-2.282-3.591  c-0.408-0.512-0.813-0.996-1.018-1.629c-0.186-0.578-0.169-1.207-0.522-1.725c-0.347-0.511-1.652-1.526-2.03-0.532  c0.452-0.268-0.433,0.074-0.589,0.137c-0.746,0.298-1.381,0.389-2.18,0.253c-1.773-0.302-3.6-0.676-5.271-1.352  c-1.028-0.416-2.795-1.268-3.473,0.125c-0.435,0.894-0.006,2.886-1.702,2.312c-0.697-0.236-1.296-0.576-2.022-0.761  c-0.763-0.194-1.21-0.41-1.746-0.981c-1.076-1.146-2.2-0.966-3.617-1.333c-1.035-0.268-2.722-1.017-1.573-2.141  c0.596-0.583,0.294-0.662,0.245-1.382c-0.034-0.501,0.512-0.958,0.163-1.361c-0.264-0.304-1.234-0.421-1.593-0.406  c-0.921,0.04-1.847,0.28-2.766,0.369c-1.761,0.172-3.471-0.106-5.219,0.295c-1.52,0.35-2.967,1.314-4.512,1.458  c-0.574,0.054-1.19,0.037-1.754-0.083c-0.582-0.124-1.084-0.787-1.635-0.803c-0.65-0.019-1.096,0.875-1.404,1.322  c-0.393,0.569-0.837,1.002-1.417,1.381c-1.242,0.812-2.362,1.365-2.911,2.839c-0.504,1.351-0.767,2.592-2.274,3.132  c-0.686,0.246-1.406,0.33-1.99,0.804c-0.585,0.475-1.022,1.171-1.508,1.741c-1.299,1.525-2.509,3.117-3.688,4.736  c-0.479,0.658-0.826,1.249-0.548,2.07c0.302,0.892,0.4,1.443,0.351,2.404c-0.046,0.889-0.178,1.761-0.495,2.597  c-0.337,0.892-0.904,1.718-1.12,2.653C8.226,32.62,8.23,33.42,8.837,33.8c0.204,0.128,1.169,0.447,1.306,0.098  c-0.312,0.015-0.62,0.127-0.927,0.138c0.219-0.007-0.744-0.015-0.589-0.071c-0.334,0.118-0.387,0.542-0.306,0.932  c0.096,0.456,0.462,0.971,0.938,1.078c0.357,0.08,0.94-0.302,1.242-0.038c-0.422-0.37-1.31,1.239-0.285,1.088  c-0.077,0.086-0.123,0.186-0.137,0.3c0.027,0.086,0.458-0.119,0.524-0.117c-0.275,0.937,1.079,1.706,1.491,2.393  c0.294,0.49,0.35,1.085,0.605,1.594c0.315,0.628,0.834,1.019,1.376,1.438c1.064,0.822,2.004,1.844,3.131,2.578  c1.388,0.904,2.532,0.458,3.992,0.027c1.47-0.434,2.634-0.117,4.081,0.155c0.81,0.152,1.221-0.211,1.95-0.446  c0.656-0.212,1.273-0.471,1.919-0.716c1.299-0.493,2.454-0.926,3.881-0.827c0.569,0.039,1.045,0.19,1.479,0.57  c0.092,0.081,0.672,0.787,0.733,0.732c-0.38,0.191,0.071,0.841,0.243,1.014c0.562,0.564,0.942,0.248,1.562,0.077  c0.513-0.141,0.912,0.084,1.398-0.062c0.56-0.168,0.443-0.349,0.968,0.128c0.855,0.778,1.54,1.326,1.259,2.664  c-0.045,0.212-0.684,1.925-0.207,1.704c-0.55,0.254-0.227,1.134,0.297,1.191c-0.303,0.17-0.405-0.161-0.685-0.166  c0.075,0.001-0.398,1.041-0.425,1.142c-0.225,0.863,0.368,1.636,0.897,2.261c0.659,0.78,1.472,1.406,2.153,2.165  c0.341,0.379,0.638,0.784,0.819,1.266C43.643,58.422,43.618,58.856,43.948,59.077"/><path d="M82.366,77.655c0.281-0.488,0.135-0.797,0.021-1.295c-0.088-0.384-0.056-0.784-0.072-1.172  c-0.008-0.197-0.147-0.608-0.122-0.761c0.041-0.253,0.249-0.411,0.384-0.613c0.131-0.196,0.249-0.855,0.353-0.954  c0.119-0.114,0.767-0.364,0.982-0.37c-0.005,0.069,0.022,0.12,0.083,0.153c0.335,0.015,0.535-0.55,0.901-0.438  c0.262,0.08,0.164,0.345,0.417,0.453c0.433,0.185,0.082-0.335,0.091-0.406c0.022-0.181,0.106-0.638,0.447-0.606  c0.247,0.024,0.184,0.486,0.422,0.321c0.128-0.089-0.002-0.41,0.053-0.587c0.013-0.042,0.398-0.467,0.387-0.478  c0.027,0.146,0.017,0.29-0.032,0.431c0.12-0.139,0.263-0.273,0.379-0.407c0.058-0.066,0.265,0.038,0.296-0.041  c0.01-0.025-0.279-0.272-0.279-0.377c0.002-0.377,0.288-0.22,0.357-0.247c0.031-0.212,0.067-1.408,0.311-0.473  c0.146-0.207,0.299-0.416,0.38-0.66c0.278-0.071,0.254,0.152,0.469-0.307c0.089-0.19-0.043-0.737,0.001-0.802  c1.025-0.952,1.318,1.531,1.362,2.213c0.035,0.544,0.35,1.732,0.024,2.185c-0.463,0.642-0.163-0.342-0.504-0.425  c-0.373-0.092-0.189,1.17-0.198,1.267c-0.041,0.408-0.275,0.594-0.453,0.936c-0.162,0.31-0.2,0.648-0.288,0.982  c-0.432,1.642-1.329,3.259-2.052,4.792c-0.597,1.266-1.013,2.815-1.872,3.936c-0.399,0.521-0.602,0.39-1.201,0.495  c-0.651,0.114-0.961,0.636-1.588,0.209c-0.61-0.415-1.085-0.992-1.064-1.766c0.008-0.306,0.183-0.583,0.163-0.882  c-0.028-0.411-0.208-0.377-0.285-0.692c-0.16-0.658,0.003-1.32,0.413-1.855C81.483,78.849,81.867,78.186,82.366,77.655"/><text font-family="'Helvetica Neue', Helvetica, Arial-Unicode, Arial, Sans-serif" font-weight="bold" font-size="5px" fill="#000000" y="115" x="0">Created by Dolly Holmes</text><text font-family="'Helvetica Neue', Helvetica, Arial-Unicode, Arial, Sans-serif" font-weight="bold" font-size="5px" fill="#000000" y="120" x="0">from the Noun Project</text></svg>