<svg y="0px" x="0px" version="1.1" viewBox="0.75 0 104.5 101" xmlns:xlink="http://www.w3.org/1999/xlink" xmlns="http://www.w3.org/2000/svg" style="max-height: 500px" width="104.5" height="101"><title>icon/filled/northAmerica</title><g fill-rule="evenodd" fill="none" stroke-width="1" stroke="none"><path fill="#000000" d="M43.2975964,89.3674319 C42.8965209,89.0481396 42.6596005,88.6125579 42.555402,88.1910997 C42.3564604,87.3864278 42.3157883,85.1527119 41.8476254,84.5758319 C41.3794626,83.998952 41.0475751,82.4297699 40.4983843,82.2585678 C39.9491935,82.0873658 35.3065624,80.6529386 35.3065624,80.3472487 C35.3065624,80.0415587 35.2455831,79.3149322 34.9248598,79.0023593 C34.6041364,78.6897864 34.6588846,78.164929 34.9248598,77.7750878 C35.1908349,77.3852467 35.5671945,77.2170029 34.4059022,76.3896442 C33.9112446,76.0372271 33.5592561,75.6661757 33.1949501,75.7321477 C32.7039861,75.8210562 32.2303282,76.4434332 31.7298132,76.5159229 C30.8579051,76.6422016 31.8658061,75.8983874 30.9377509,74.0797166 C30.0096957,72.2610457 30.7499537,70.9110812 29.8775298,69.6176205 C29.0051058,68.3241599 27.9624868,68.9341228 28.1883769,67.020019 C28.4142671,65.1059153 26.6334362,63.0022513 26.3504999,62.3845476 C26.0675637,61.7668439 26.3567513,57.4754664 26.6218152,56.2102343 C26.8868791,54.9450022 27.9309621,51.731682 28.3132844,50.2353708 C28.6956067,48.7390595 27.3029417,49.0222948 27.4723679,47.8233364 C27.6417941,46.6243779 27.119141,45.3061727 26.1351893,44.1094237 C25.1512375,42.9126748 24.928268,41.6395876 24.6294331,41.4491508 C24.3305982,41.258714 23.8082681,41.4011631 24.0694331,40.3822932 C24.3305982,39.3634234 23.3746254,39.3960178 23.151417,39.045094 C22.9282086,38.6941702 23.6062008,38.0724292 22.0062684,37.4805723 C20.4063361,36.8887154 19.134727,36.0096741 18.4526475,35.2899225 C17.7705679,34.570171 17.7946118,35.1346507 17.566363,35.7496177 C17.3381141,36.3645848 15.8034972,36.6770426 15.2717439,36.5208137 C14.7399906,36.3645848 14.699391,35.8966086 15.4837876,35.2899225 C16.2681843,34.6832364 15.4871412,34.3953411 14.3193826,34.8426318 C13.151624,35.2899225 13.3997581,36.2125873 12.9659196,36.3718052 C12.5320811,36.5310232 12.3492554,37.7536138 11.8435854,38.2380499 C11.3379155,38.7224859 10.9417785,39.4514876 10.2687203,39.5162241 C9.59566203,39.5809607 8.53793909,39.835707 7.94736319,40.0656194 C7.3567873,40.2955319 7.17315484,40.7574568 6.77258941,40.0656194 C6.53726189,39.5800903 6.32807364,38.9188128 6.89082164,38.6558172 C7.45356963,38.3928216 7.52831402,38.7393003 8.21489711,38.1099363 C8.90148019,37.4805723 9.07254086,37.6173856 9.36487283,37.7224311 C9.6572048,37.8274766 9.74611801,36.365326 10.1334979,36.1313981 C10.5208778,35.8974702 10.4369507,35.1075373 9.90091179,35.2899225 C9.36487283,35.4723078 9.14623749,36.5131785 8.31859387,36.1313981 C7.49095025,35.7496177 7.32284126,35.7188548 7.32284126,35.1207014 C7.32284126,34.522548 7.33615648,34.2895772 6.50256175,34.7051393 C5.66896703,35.1207014 7.07831547,33.5545112 6.62547466,33.5545112 C6.17263385,33.5545112 5.82207911,34.0298082 5.41532313,33.6997366 C5.00856715,33.369665 4.73160687,33.1880673 5.41532313,32.7766082 C6.09903939,32.3651491 6.37964885,32.0205307 6.50256175,31.2212726 C6.62547466,30.4220145 7.35509733,29.8152117 7.94736319,30.2639295 C8.53962905,30.7126474 9.53967228,30.740073 9.90091179,30.0873532 C10.2621513,29.4346334 10.4408256,28.8153812 9.19409441,29.4513672 C7.94736319,30.0873532 7.67982928,28.1680688 7.94736319,27.2918028 C8.21489711,26.4155368 8.18209762,26.6636645 9.19409441,26.3119749 C10.2060912,25.9602854 10.3716292,26.7097019 10.5498405,27.1271274 C10.7280519,27.544553 11.9022927,26.7827065 11.7842286,26.3119749 C11.6661646,25.8412433 11.0296821,26.2779027 10.8640386,25.3385895 C10.6983952,24.3992762 10.0222895,24.2705157 9.90091179,23.7788171 C9.77953409,23.2871185 10.7094291,22.7110608 11.3813148,22.8403061 C12.0532006,22.9695515 12.950102,22.1076063 13.2990143,22.1076063 C13.6479267,22.1076063 14.5646655,21.888064 15.1292189,21.4342216 C15.6937723,20.9803792 16.5875149,20.9195252 17.1977919,22.1076063 C17.8080689,23.2956874 17.0706547,21.4381529 20.1110358,23.1027961 C20.6845908,23.4168239 21.8770427,23.183435 22.3611251,23.6164759 C22.8452075,24.0495167 24.1173533,23.8034616 24.6294331,23.4531288 C25.1415129,23.1027961 27.3833574,24.7545625 27.9140305,24.7545625 C28.4447036,24.7545625 29.3848907,23.9167465 29.8775298,23.9167465 C30.3701688,23.9167465 31.4085973,23.8556026 32.0511801,23.1027961 C32.6937629,22.3499895 33.505242,23.1842373 34.4059022,22.8403061 C35.3065624,22.4963749 35.9848684,22.9935856 36.5475182,23.3050307 C37.1101679,23.6164759 39.0363602,25.1080974 39.4132565,25.1080974 C40.4983843,25.1080974 40.6421939,25.1092914 40.6421939,25.8194495 C40.6421939,26.5296075 42.0480863,26.060292 42.555402,26.060292 C43.0627177,26.060292 42.9181866,25.4596543 44.0272496,25.9521797 C45.1363127,26.4447052 45.8982848,24.7545625 46.7745873,24.7545625 C47.6508898,24.7545625 47.9551496,25.664091 49.2976609,25.4511375 C50.6401723,25.238184 49.8910174,24.1045053 50.2655949,23.7788171 C50.6401723,23.4531288 51.4811858,23.6692157 51.4811858,24.3886565 C51.4811858,25.1080974 51.8837864,25.4125131 52.3360506,24.9498638 C52.7883148,24.4872145 53.3766923,24.730697 52.6857723,23.9167465 C51.9948524,23.1027961 51.8759704,22.780991 52.2267176,22.1076063 C52.5774648,21.4342216 53.6565753,19.8566561 53.6565753,19.5419842 C53.6565753,19.2273123 53.4394788,18.3753657 53.8920709,18.6228302 C54.344663,18.8702947 55.0086148,19.4579245 55.0086148,19.0403773 C55.0086148,18.6228302 55.0190788,18.0150574 55.4981208,18.0150574 C55.9771628,18.0150574 57.7011244,18.0996334 57.0592773,18.4871024 C56.4174302,18.8745715 55.9914071,18.8878637 55.9914071,19.5419842 C55.9914071,20.1961047 55.3563026,20.3781059 54.6975068,20.3781059 C54.0387109,20.3781059 54.5761782,21.5821628 54.0200721,21.8448845 C53.4639661,22.1076063 54.5594026,23.4448365 54.5594026,23.9167465 C54.5594026,24.3886565 55.0048345,24.6520833 55.4981208,24.6520833 C55.9914071,24.6520833 56.7095384,24.1705355 56.5684731,24.7545625 C56.4274079,25.3385895 55.7076382,25.9521797 56.2485604,25.9521797 C56.7894825,25.9521797 58.0262017,25.9226164 58.2752821,25.3385895 C58.5243626,24.7545625 58.8266191,24.3886565 59.4999235,24.7545625 C60.1732278,25.1204684 59.3424449,25.5580053 59.6159095,26.424904 C59.8893741,27.2918028 59.807799,28.2592033 59.0415406,28.2592033 C58.2752821,28.2592033 57.2533455,28.7516385 57.0592773,29.2550818 C56.8652091,29.7585251 56.5220949,30.4405058 55.7716554,30.2639295 C55.0212158,30.0873532 54.84619,29.0990225 54.3609375,29.4513672 C53.875685,29.803712 55.0332494,31.0418393 54.5594026,31.3777115 C54.0855558,31.7135838 52.0816325,32.3276441 51.4811858,33.149395 C50.8807391,33.9711459 49.2976609,36.0063826 49.8108326,37.8802265 C50.3240042,39.7540705 52.0816743,41.2853053 52.3360506,41.2312987 C52.590427,41.1772921 53.6972716,41.4731434 54.157475,41.8278337 C54.6263416,42.189201 54.64556,42.8164058 55.0086148,42.0238523 C55.3716695,41.2312987 56.0654634,40.8744493 56.2485604,41.4491508 C56.4316573,42.0238523 56.3669057,42.1501427 57.510769,41.6907207 C58.6546323,41.2312987 57.0658873,42.4948547 56.8171802,42.7512821 C56.5684731,43.0077094 57.6234672,43.1853067 57.6234672,43.5847128 C57.6234672,43.984119 57.304198,44.6592815 57.304198,45.4262154 C57.304198,46.1931493 57.8231957,47.2593246 58.5087673,47.005076 C59.1943389,46.7508274 59.8674156,45.076894 59.6159095,44.6656004 C59.3644034,44.2543068 58.8237858,43.745758 59.4999235,42.4317107 C59.9689154,41.5202431 60.8818198,43.0940302 61.2118147,41.2312987 C61.5418095,39.3685673 62.462842,40.4729657 61.6093344,38.7938065 C60.7558267,37.1146473 61.2729739,36.9383335 61.9029262,36.7381208 C61.948344,36.1533566 62.1354242,36.0210082 62.7727735,35.7496177 C63.4101227,35.4782272 62.744022,35.29356 62.4515097,34.4966483 C62.1589974,33.6997366 61.8076812,33.1180702 62.991808,33.5545112 C64.1759347,33.9909523 64.993771,33.5299659 65.6084265,33.9571453 C66.2230819,34.3843247 65.7634281,34.7416849 67.0832782,35.1207014 C67.6725571,35.2899225 67.7770126,36.3203574 67.2265591,37.7224311 C66.8601121,38.6558172 67.6441884,39.1563019 69.0285268,38.3928216 C69.5414528,38.1099363 69.5733017,36.8566073 70.7431679,36.8566073 C71.913034,36.8566073 70.8444244,38.5449312 71.282545,38.6558172 C71.7206656,38.7667032 72.2339354,38.4692709 72.2339354,39.5162241 C72.2339354,40.5631773 74.2373085,42.8867456 74.5532678,42.8867456 C74.8692271,42.8867456 75.0767893,42.2268739 75.85881,42.5568098 C76.6408307,42.8867456 75.2112175,43.4887521 75.2112175,43.8819462 C75.2112175,44.2751403 76.4258415,43.4458202 76.9096442,44.1094237 C77.393447,44.7730273 76.426074,45.0011625 75.620406,45.8800172 C74.814738,46.7588719 74.3893855,47.4425677 73.121391,47.2238218 C71.8533965,47.005076 72.7320669,48.2896214 71.8546762,48.6861401 C70.9772855,49.0826588 70.3324038,48.8163395 69.7893286,48.3470701 C69.2462535,47.8778006 67.7131396,48.1711925 67.2265591,48.6861401 C66.7399786,49.2010877 65.4831321,49.1564868 66.0569864,49.9899187 C66.6308408,50.8233507 67.4223664,50.4101042 67.803377,50.2353708 C68.1843876,50.0606373 68.8064489,49.1970961 69.1652566,50.2353708 C69.5240644,51.2736454 69.2614587,51.685089 69.6436581,52.4149444 C70.0258576,53.1447999 70.0958689,54.8244053 70.7431679,53.8581172 C71.3904668,52.891829 72.4644546,52.1537657 72.6072749,53.8581172 C72.7500952,55.5624686 70.3513677,55.5686181 69.4558934,56.5502682 C68.9397078,57.5000669 67.2059958,58.4374649 67.0832782,56.9914224 C68.2415627,56.2789726 68.1200732,54.9841683 66.6069873,55.5972013 C65.0939014,56.2102343 64.0723971,58.1094768 64.9228221,58.9349294 C65.773247,59.760382 64.3368371,59.7448726 63.468132,60.5025154 C62.5994269,61.2601582 61.0480503,62.6936107 60.8154102,63.2891251 C60.58277,63.8846395 61.3157425,63.9514188 61.6093344,64.2309862 C61.9029262,64.5105535 61.7575562,65.1394864 60.5149332,66.1178168 C59.2723102,67.0961472 58.5837987,67.700104 57.821538,67.9823341 C57.0592773,68.2645641 56.7059546,69.5229482 56.8171802,71.0214176 C56.9284059,72.5198871 57.6234672,73.4267029 57.304198,74.0797166 C56.9849288,74.7327302 56.7677218,75.569536 55.9914071,74.8246263 C55.2150924,74.0797166 54.7993135,73.1610956 54.7993135,72.3326021 C54.7993135,71.5041085 54.0919656,70.0446053 53.4376538,70.0446053 C52.7833419,70.0446053 52.0001814,71.0962243 50.527694,70.0446053 C49.0552065,68.9929862 43.8514173,70.2775341 43.1486805,70.6494759 C42.4459437,71.0214176 42.6666375,71.457325 42.0839661,71.8488623 C41.5012947,72.2403996 40.2857947,73.4553457 40.0831163,74.2282669 C39.880438,75.0011882 40.1033603,77.102237 40.3008723,77.7750878 C40.4983843,78.4479386 41.9181691,79.1318886 43.1486805,78.7321361 C44.3791919,78.3323837 44.530424,77.2950212 44.8224118,76.7068759 C45.1143997,76.1187305 45.5321989,77.0300912 45.927783,77.0300912 C46.3233671,77.0300912 47.2444021,76.8180395 47.0708295,77.7750878 C46.897257,78.7321361 46.4493258,79.1511771 45.927783,79.6445494 C45.4062401,80.1379217 46.2259314,80.3314053 45.7441665,80.6757341 C45.2624017,81.0200629 44.6073934,80.3988835 44.7149026,81.6354123 C44.8224118,82.8719411 46.1689344,81.6133531 46.0483587,83.0945925 C45.927783,84.5758319 45.8994589,83.9486504 45.2179898,84.3516195 C44.5365206,84.7545886 46.1674753,85.1950586 45.2179898,85.6921093 C44.2685042,86.1891599 44.2561758,86.1455685 44.2561758,87.0778252 C44.2561758,88.010082 43.36515,88.6508103 45.2179898,88.0177372 C45.6752233,89.0171178 43.6622769,89.6577505 43.2975964,89.3674319 Z"/><path fill="#000000" d="M66.4456963,22.1923486 C65.8862749,22.1458659 66.2765519,21.508767 65.4498101,21.8014741 C64.6230683,22.0941812 63.9865458,21.8523787 63.8790449,21.5324682 C63.6331508,20.8007154 63.9888708,20.3152938 65.0735139,20.4022271 C66.1581569,20.4891604 66.3924683,19.6986138 64.9507923,19.6986138 C63.5091163,19.6986138 64.688295,18.7540402 65.3299898,18.908232 C65.9716847,19.0624239 65.9766159,18.594182 66.4456963,18.594182 C66.9147766,18.594182 68.3643123,18.7500927 67.5670941,18.0150574 C66.8084248,17.9860392 66.9240151,16.9406391 67.468061,16.6165442 C68.0121068,16.2924493 68.7025601,17.0667049 68.8471752,16.5226842 C68.9917904,15.9786635 68.8967355,15.6508488 70.0904677,15.4585064 C71.2842,15.266164 70.1538605,14.5198823 71.1194843,14.5446817 C72.0851081,14.5694812 71.7833804,15.2604748 72.5416709,14.4421764 C73.2999613,13.623878 72.9221583,14.7891579 74.1082865,14.4421764 C75.2944147,14.095195 74.3919456,14.0039264 74.9963762,13.4582427 C75.6008068,12.9125591 75.8657104,13.5350973 76.2532706,13.0895625 C76.6408307,12.6440276 77.5261339,12.4631802 77.393447,12.0353161 C77.26076,11.607452 76.3901697,11.9425066 77.6226945,11.2298276 C78.8552193,10.5171486 78.5049414,11.8530862 79.7029235,10.5630034 C80.2643856,9.95837615 80.1910981,10.7272816 80.6352074,10.6869773 C80.9014717,10.662813 80.9550979,9.76132808 81.7678424,10.0609229 C82.5805869,10.3605176 83.1027181,10.2873074 83.5552342,10.1741151 C84.0077504,10.0609229 83.8489543,10.6656574 85.0598944,10.4899034 C86.2708345,10.3141495 85.4314608,10.8243847 86.2572532,10.9283688 C87.0830456,11.032353 87.9019334,10.7874906 87.9019334,11.3132307 C87.9019334,11.8389707 88.2835912,11.7467928 88.7132278,11.7467928 C89.1428644,11.7467928 89.9747544,12.0353161 87.9019334,12.6256127 C85.8291123,13.2159093 85.9456087,13.7133012 87.9019334,13.5397572 C89.111857,13.6653553 88.4797252,14.3559346 90.2317369,13.5397572 C93.0193585,14.3676396 89.909002,12.4655894 91.7146303,12.7902345 C93.5202586,13.1148796 92.2002764,13.2805133 93.3786697,12.5493796 C94.557063,11.8182459 94.3296553,13.7519974 93.6189682,13.8001624 C92.9082812,13.8483274 93.1562947,14.7892126 92.5781899,15.0715152 C92.000085,15.3538178 91.7199668,15.8952497 92.0931632,16.5226842 C92.4663595,17.1501187 91.590016,16.9456349 91.7146303,17.4803462 C91.8392446,18.0150574 93.0392086,18.1566301 92.8761987,18.6830521 C92.7131889,19.2094742 92.1127579,19.236575 92.299088,19.9646776 C92.4854181,20.6927802 91.9778101,21.0519036 92.5781899,21.0519036 C93.1785696,21.0519036 92.8835458,21.8268671 92.299088,21.9326548 C91.7146303,22.0384425 91.7987416,22.2385999 91.9767445,22.6946366 C92.1547474,23.1506734 91.727766,23.837922 91.1803856,23.2241907 C90.6330052,22.6104593 89.9709136,21.9178889 90.1320449,23.0567232 C90.2931762,24.1955575 91.155166,24.1575557 91.3068813,24.5502494 C91.4585967,24.942943 92.1223793,25.670269 91.7146303,25.9792726 C91.3068813,26.2882761 90.7759064,27.3382729 90.5718288,26.8814466 C90.3677512,26.4246204 90.866388,25.6736046 90.2317369,25.3595633 C89.5970859,25.045522 89.1542779,24.7652711 89.1542779,25.5990041 C89.1542779,26.4327371 88.9726965,26.3956807 88.6226325,26.6385637 C88.2725684,26.8814466 89.7605149,27.0366406 89.6320055,27.4224324 C89.503496,27.8082241 88.7374384,27.4560074 88.3196859,27.9436619 C87.9019334,28.4313164 87.5850279,28.5247426 87.0830456,28.1476233 C86.8551232,29.260599 87.17645,29.9008636 86.4067709,29.9008636 C85.6370917,29.9008636 85.5423073,29.9808313 84.9757573,30.5584333 C84.4092074,31.1360353 84.4092074,30.0341694 83.8057523,31.002863 C83.2022973,31.9715565 83.4789747,31.8750988 82.4002081,31.8066474 C81.3214415,31.7381961 80.3984452,31.81765 80.3984452,32.6124869 C80.3984452,33.4073237 80.6706131,34.2370699 80.020381,34.5999205 C79.3701489,34.9627711 80.0474878,35.7795423 79.8361174,36.2172238 C79.6247469,36.6549053 79.1116672,36.6841166 79.2316307,37.5084509 C79.3515942,38.3327852 79.058611,39.5183113 78.2408866,39.5183113 C77.4231623,39.5183113 77.7930293,38.8344869 77.2904245,38.7655988 C76.7878198,38.6967108 76.8157884,39.2494508 76.5563081,38.4624432 C76.2968277,37.6754356 76.6175463,38.229386 75.8873583,38.0695793 C75.1571702,37.9097726 74.282433,36.0914069 74.3683917,35.420085 C74.4543503,34.7487632 73.9529477,34.5968896 73.9529477,34.0039502 C73.9529477,33.4110107 74.2797072,33.1975949 73.5434803,32.2476273 C72.8072535,31.2976598 73.5217599,30.6837224 74.2198495,30.3589894 C74.9179391,30.0342564 75.0814157,29.1849508 74.3683917,28.8043147 C73.6553677,28.4236786 72.4702611,29.1212122 72.4702611,28.063154 C72.4702611,27.0050958 73.8935994,28.4288088 73.8935994,27.3027017 C73.8935994,26.5003085 72.6880269,27.2937878 72.6880269,25.4449408 C71.8355579,24.9173193 72.3721163,23.6583984 71.4489695,23.3007182 C70.5258226,22.9430381 71.3587695,22.4298439 70.2095344,21.9976884 C69.0602993,21.5655328 69.5956284,21.3854188 68.9939112,21.3104964 C68.3921941,21.2355741 68.4398446,21.9976884 67.8940226,21.9976884 C67.3482006,21.9976884 67.0051176,22.2388314 66.4456963,22.1923486 Z"/></g><text font-family="'Helvetica Neue', Helvetica, Arial-Unicode, Arial, Sans-serif" font-weight="bold" font-size="5px" fill="#000000" y="115" x="0">Created by Joel Wisneski</text><text font-family="'Helvetica Neue', Helvetica, Arial-Unicode, Arial, Sans-serif" font-weight="bold" font-size="5px" fill="#000000" y="120" x="0">from the Noun Project</text></svg>