<svg xmlns="http://www.w3.org/2000/svg" version="1.0" width="1669.000000pt" height="1884.000000pt" viewBox="0 0 1669.000000 1884.000000" preserveAspectRatio="xMidYMid meet">

<g transform="translate(0.000000,1884.000000) scale(0.100000,-0.100000)" fill="#ff3859" stroke="none">
<path d="M7900 16893 c-1031 -55 -1968 -297 -2875 -743 -2080 -1023 -3561 -2976 -3979 -5250 -76 -414 -106 -733 -113 -1201 -6 -399 3 -606 38 -924 152 -1377 694 -2683 1564 -3770 164 -205 346 -407 545 -605 l175 -175 3 916 2 916 -81 119 c-536 790 -889 1751 -994 2709 -48 443 -48 956 0 1384 140 1232 630 2353 1447 3306 143 167 464 486 642 638 709 606 1542 1042 2431 1271 895 232 1849 258 2760 75 432 -86 936 -249 1313 -424 l102 -48 0 -3938 c0 -3481 -2 -3938 -15 -3933 -8 3 -1147 1155 -2531 2560 l-2515 2554 -715 0 -714 0 0 -4485 0 -4485 53 -34 c203 -130 664 -367 942 -485 615 -261 1290 -444 1935 -525 356 -45 446 -50 910 -50 465 -1 574 4 905 45 1209 148 2374 601 3359 1307 70 51 135 92 144 92 10 0 409 -392 887 -870 l870 -870 860 0 860 0 -1278 1278 c-702 702 -1277 1281 -1277 1285 0 5 59 74 131 155 750 839 1288 1810 1594 2872 337 1174 374 2404 109 3606 -262 1193 -833 2312 -1655 3249 -127 145 -467 495 -480 495 -5 0 -9 -408 -9 -915 l0 -916 88 -132 c487 -727 820 -1599 947 -2479 45 -317 58 -516 59 -888 0 -441 -25 -724 -99 -1130 -321 -1747 -1425 -3297 -2973 -4174 -823 -467 -1702 -727 -2652 -787 -230 -15 -757 -6 -965 16 -708 73 -1356 248 -1955 526 l-90 42 0 3358 c0 2681 3 3359 13 3359 6 -1 1146 -1153 2532 -2560 l2520 -2560 713 0 712 0 0 4310 c0 2885 3 4310 10 4310 7 0 9 253 8 752 l-3 752 -155 93 c-164 98 -554 300 -730 378 -953 424 -1979 640 -3010 633 -146 -1 -290 -3 -320 -5z" fill="#ff3859"/>
</g>
</svg>