<svg viewBox="0.75 0 104.5 101" y="0px" x="0px" version="1.1" xmlns="http://www.w3.org/2000/svg" style="max-height: 500px" width="104.5" height="101"><g transform="translate(0,-952.36218)"><g transform="matrix(0.2228316,0,0,0.2228316,-130.52879,848.74234)"><path fill="#d0d0d0" d="m 842.85712,878.07648 c 0,-0.55 0.47656,-1 1.05902,-1 0.58246,0 0.7809,0.45 0.44098,1 -0.33992,0.55 -0.81648,1 -1.05902,1 -0.24254,0 -0.44098,-0.45 -0.44098,-1 z m 1,-3.03138 c 0,-0.53274 0.675,-0.96862 1.5,-0.96862 0.825,0 1.5,0.17686 1.5,0.39301 0,0.21616 -0.675,0.65203 -1.5,0.96862 -0.825,0.31658 -1.5,0.13972 -1.5,-0.39301 z M 746.19993,724.57648 c 0.004,-4.4 0.17944,-6.07561 0.39069,-3.72357 0.21124,2.35204 0.20827,5.95204 -0.007,8 -0.21488,2.04796 -0.38772,0.12357 -0.38409,-4.27643 z m 166.85214,-74 c 0.0204,-1.65 0.2445,-2.20394 0.49804,-1.23097 0.25354,0.97297 0.23687,2.32297 -0.0371,3 -0.27393,0.67703 -0.48137,-0.11903 -0.46099,-1.76903 z M 758.60712,487.4142 c 0.6875,-0.27741 1.8125,-0.27741 2.5,0 0.6875,0.27741 0.125,0.50438 -1.25,0.50438 -1.375,0 -1.9375,-0.22697 -1.25,-0.50438 z" style=""/><path fill="#b0b0b0" d="m 913.1093,656.57648 c 0.0111,-2.2 0.21589,-2.98225 0.45508,-1.73834 0.23919,1.24391 0.23011,3.04391 -0.0202,4 -0.25029,0.95609 -0.446,-0.0617 -0.4349,-2.26166 z M 699.46013,501.24315 c -0.28327,-0.45834 0.12038,-0.83334 0.89699,-0.83334 0.77661,0 1.18026,0.375 0.89699,0.83334 -0.28326,0.45833 -0.68691,0.83333 -0.89699,0.83333 -0.21008,0 -0.61373,-0.375 -0.89699,-0.83333 z m 31,-4 c -0.28327,-0.45834 0.12038,-0.83334 0.89699,-0.83334 0.77661,0 1.18026,0.375 0.89699,0.83334 -0.28326,0.45833 -0.68691,0.83333 -0.89699,0.83333 -0.21008,0 -0.61373,-0.375 -0.89699,-0.83333 z" style=""/><path fill="#909090" d="m 751.08912,763.07648 c 0,-1.925 0.2058,-2.7125 0.45733,-1.75 0.25152,0.9625 0.25152,2.5375 0,3.5 -0.25153,0.9625 -0.45733,0.175 -0.45733,-1.75 z m -5.15305,-49.58333 c 0.048,-1.16495 0.28494,-1.4019 0.60416,-0.60417 0.28888,0.72187 0.25335,1.58437 -0.0789,1.91667 -0.33229,0.33229 -0.56864,-0.25834 -0.52522,-1.3125 z m 122.92105,-0.79423 c 0,-0.20765 0.7875,-0.99515 1.75,-1.75 1.58606,-1.24387 1.62143,-1.2085 0.37756,0.37756 -1.30637,1.66575 -2.12756,2.19548 -2.12756,1.37244 z m 16.56429,-11.91557 c 0.37553,-0.98622 0.93469,-1.54122 1.24258,-1.23333 0.30789,0.30789 6.4e-4,1.11479 -0.68278,1.79313 -0.98762,0.98026 -1.10248,0.8654 -0.5598,-0.5598 z m 24.51466,-30.2902 c 0.048,-1.16495 0.28494,-1.4019 0.60416,-0.60417 0.28887,0.72187 0.25335,1.58437 -0.0789,1.91667 -0.3323,0.33229 -0.56864,-0.25834 -0.52522,-1.3125 z M 710.72956,648.32648 c -1.24387,-1.58606 -1.2085,-1.62143 0.37756,-0.37756 0.9625,0.75485 1.75,1.54235 1.75,1.75 0,0.82304 -0.82119,0.29331 -2.12756,-1.37244 z m 185.94006,-75.93311 c 0.72187,-0.28887 1.58437,-0.25335 1.91667,0.0789 0.33229,0.3323 -0.25834,0.56864 -1.3125,0.52522 -1.16495,-0.048 -1.4019,-0.28494 -0.60417,-0.60416 z m -199.5805,-50.31689 c 0,-1.925 0.2058,-2.7125 0.45733,-1.75 0.25152,0.9625 0.25152,2.5375 0,3.5 -0.25153,0.9625 -0.45733,0.175 -0.45733,-1.75 z" style=""/><path fill="#6f6f6f" d="m 808.35712,858.07648 c 0.99549,-1.1 2.03498,-2 2.30998,-2 0.275,0 -0.31449,0.9 -1.30998,2 -0.99549,1.1 -2.03498,2 -2.30998,2 -0.275,0 0.31449,-0.9 1.30998,-2 z m -45.93571,-39.70687 c -0.54268,-1.4252 -0.42782,-1.54006 0.5598,-0.5598 0.68342,0.67834 0.99067,1.48524 0.68278,1.79313 -0.30789,0.30789 -0.86705,-0.24711 -1.24258,-1.23333 z m 48.43571,-17.68614 c 0,-0.21616 0.69837,-0.661 1.55194,-0.98855 0.88992,-0.34149 1.29132,-0.17385 0.94098,0.39301 -0.58726,0.95021 -2.49292,1.40545 -2.49292,0.59554 z m 27.26903,-27.29998 c 0.97297,-0.25354 2.32297,-0.23687 3,0.0371 0.67703,0.27393 -0.11903,0.48137 -1.76903,0.46099 -1.65,-0.0204 -2.20394,-0.2445 -1.23097,-0.49804 z m -87.19008,-5.89034 c 0.048,-1.16495 0.28494,-1.4019 0.60416,-0.60417 0.28888,0.72187 0.25335,1.58438 -0.0789,1.91667 -0.33229,0.33229 -0.56864,-0.25834 -0.52522,-1.3125 z m -3.92106,-21.41667 c 0,-1.375 0.22698,-1.9375 0.50439,-1.25 0.27741,0.6875 0.27741,1.8125 0,2.5 -0.27741,0.6875 -0.50439,0.125 -0.50439,-1.25 z m -1.07894,-35.58333 c 0.048,-1.16495 0.28494,-1.4019 0.60416,-0.60417 0.28888,0.72187 0.25335,1.58437 -0.0789,1.91667 -0.33229,0.33229 -0.56864,-0.25834 -0.52522,-1.3125 z m 164.07894,-36.41667 c 0,-1.375 0.22698,-1.9375 0.50439,-1.25 0.27741,0.6875 0.27741,1.8125 0,2.5 -0.27741,0.6875 -0.50439,0.125 -0.50439,-1.25 z m -59.28545,-120.75 c -1.24387,-1.58606 -1.2085,-1.62143 0.37756,-0.37755 1.66575,1.30636 2.19548,2.12755 1.37244,2.12755 -0.20765,0 -0.99515,-0.7875 -1.75,-1.75 z M 692.42141,502.36961 c -0.54268,-1.4252 -0.42782,-1.54006 0.5598,-0.5598 0.68342,0.67834 0.99067,1.48524 0.68278,1.79313 -0.30789,0.30789 -0.86705,-0.24711 -1.24258,-1.23333 z" style=""/><path fill="#4f4f4f" d="m 766.83812,833.55359 c -1.05678,-1.27335 -0.99492,-1.41968 0.37756,-0.89301 0.90279,0.34643 1.64144,1.03173 1.64144,1.52289 0,1.28596 -0.57887,1.10536 -2.019,-0.62988 z m 45.09795,-27.06044 c 0.048,-1.16495 0.28494,-1.4019 0.60416,-0.60417 0.28887,0.72187 0.25335,1.58438 -0.0789,1.91667 -0.3323,0.33229 -0.56864,-0.25834 -0.52522,-1.3125 z m 41.92105,-50.79423 c 0,-0.20765 0.7875,-0.99515 1.75,-1.75 1.58606,-1.24387 1.62143,-1.2085 0.37756,0.37756 -1.30637,1.66575 -2.12756,2.19548 -2.12756,1.37244 z" style=""/><path fill="#2e2e2e" d="m 792.85712,890.68347 c 0,-0.21616 0.69837,-0.661 1.55194,-0.98855 0.88992,-0.34149 1.29132,-0.17385 0.94098,0.39301 -0.58726,0.95021 -2.49292,1.40545 -2.49292,0.59554 z m 13.5,-2.60699 c -1.63041,-0.70061 -1.68751,-0.87242 -0.30902,-0.92971 0.93004,-0.0387 1.9691,0.37971 2.30902,0.92971 0.71066,1.14988 0.67591,1.14988 -2,0 z m 6.90499,-2.25 -1.90499,-2.25 2.25,1.90499 c 2.11444,1.79022 2.70524,2.59501 1.90499,2.59501 -0.18976,0 -1.20226,-1.0125 -2.25,-2.25 z m -15.90499,-0.75 c -0.33992,-0.55 -0.14148,-1 0.44098,-1 0.58246,0 1.05902,0.45 1.05902,1 0,0.55 -0.19844,1 -0.44098,1 -0.24254,0 -0.7191,-0.45 -1.05902,-1 z m -36.34211,-43 c 0,-1.375 0.22698,-1.9375 0.50439,-1.25 0.27741,0.6875 0.27741,1.8125 0,2.5 -0.27741,0.6875 -0.50439,0.125 -0.50439,-1.25 z m 5.34211,-4 c 0.33992,-0.55 0.81648,-1 1.05902,-1 0.24254,0 0.44098,0.45 0.44098,1 0,0.55 -0.47656,1 -1.05902,1 -0.58246,0 -0.7809,-0.45 -0.44098,-1 z m -0.76667,-2.12409 c 0.67834,-0.68342 1.48524,-0.99067 1.79313,-0.68278 0.30789,0.30789 -0.24711,0.86705 -1.23333,1.24258 -1.4252,0.54268 -1.54006,0.42782 -0.5598,-0.5598 z m -9.65438,-18.45924 c 0.048,-1.16495 0.28494,-1.4019 0.60416,-0.60417 0.28888,0.72187 0.25335,1.58438 -0.0789,1.91667 -0.33229,0.33229 -0.56864,-0.25834 -0.52522,-1.3125 z m -6,-33 c 0.048,-1.16495 0.28494,-1.4019 0.60416,-0.60417 0.28888,0.72187 0.25335,1.58438 -0.0789,1.91667 -0.33229,0.33229 -0.56864,-0.25834 -0.52522,-1.3125 z M 858.85712,748.1355 c 0,-0.51754 0.44485,-1.21592 0.98855,-1.55194 0.56686,-0.35034 0.7345,0.0511 0.39301,0.94098 -0.66479,1.73242 -1.38156,2.04939 -1.38156,0.61096 z m 74.07895,-143.64235 c 0.048,-1.16495 0.28494,-1.4019 0.60416,-0.60417 0.28887,0.72187 0.25335,1.58437 -0.0789,1.91667 -0.33229,0.33229 -0.56864,-0.25834 -0.52522,-1.3125 z M 678.35712,578.07648 c 0.99549,-1.1 2.03498,-2 2.30998,-2 0.27499,0 -0.31449,0.9 -1.30998,2 -0.99549,1.1 -2.03498,2 -2.30998,2 -0.27499,0 0.31449,-0.9 1.30998,-2 z m 0.37244,-7.75 c -1.24387,-1.58606 -1.2085,-1.62143 0.37756,-0.37756 1.66575,1.30637 2.19548,2.12756 1.37244,2.12756 -0.20765,0 -0.99515,-0.7875 -1.75,-1.75 z m -1.87244,-8.62755 c 0,-0.20766 0.7875,-0.99516 1.75,-1.75 1.58606,-1.24388 1.62143,-1.20851 0.37756,0.37755 -1.30637,1.66575 -2.12756,2.19548 -2.12756,1.37245 z m 103.25,-74.31178 c 0.9625,-0.25152 2.5375,-0.25152 3.5,0 0.9625,0.25153 0.175,0.45733 -1.75,0.45733 -1.925,0 -2.7125,-0.2058 -1.75,-0.45733 z" style=""/><path fill="#000000" d="m 813.51138,899.00392 c -4.31516,-1.06026 -8.36516,-2.25329 -9,-2.65117 -0.63485,-0.39787 -1.60426,-0.7353 -2.15426,-0.74984 -1.76147,-0.0466 -4.1734,-1.96047 -5.3892,-4.27643 -0.64964,-1.2375 -1.84033,-2.25 -2.64598,-2.25 -2.09246,0 -1.8203,1.98396 0.28518,2.07895 0.98814,0.0446 1.22049,0.29364 0.5337,0.5721 -1.5571,0.63133 -6.21097,-2.72422 -6.25228,-4.50804 -0.018,-0.77711 -0.65872,-1.11627 -1.49939,-0.79367 -0.80739,0.30982 -1.73395,0.13297 -2.05902,-0.39301 -0.32508,-0.52598 -0.11449,-0.95633 0.46797,-0.95633 1.97753,0 1.06981,-1.56241 -1.94098,-3.34093 -1.65,-0.97468 -3,-1.44326 -3,-1.04129 0,0.40197 -1.125,-0.32603 -2.5,-1.61778 -1.375,-1.29175 -2.5,-3.15435 -2.5,-4.13913 0,-0.98478 -0.79371,-2.21529 -1.76381,-2.73446 -0.9701,-0.51918 -3.53389,-4.33897 -5.69732,-8.48842 -3.73019,-7.15448 -3.84577,-7.64139 -2.23619,-9.41996 2.12568,-2.34884 2.13772,-3.63477 0.0536,-5.71893 -1.08685,-1.08685 -2.4849,-1.43264 -4.12648,-1.02063 -2.10521,0.52837 -2.36994,0.3493 -1.74099,-1.17767 1.41003,-3.42329 2.35339,-8.54854 1.8263,-9.92214 -0.29098,-0.75826 -1.2684,-1.39297 -2.17206,-1.41046 -1.42981,-0.0277 -1.40294,-0.21369 0.20713,-1.43347 1.01757,-0.77091 1.55352,-1.8816 1.19098,-2.4682 -0.36253,-0.58659 -0.1826,-1.06653 0.39986,-1.06653 0.58246,0 1.05902,0.95248 1.05902,2.11663 0,1.6243 0.4652,1.99498 2,1.59362 2.16867,-0.56712 2.60472,0.28503 0.97817,1.91158 -1.54717,1.54717 2.1947,5.51383 4.0776,4.32254 1.21283,-0.76734 1.18098,-0.9162 -0.19878,-0.92906 -2.07906,-0.0194 -3.05478,-2.41752 -1.58259,-3.88971 0.82414,-0.82414 0.67323,-1.44773 -0.57399,-2.37185 -0.98468,-0.72959 -2.12474,-3.76218 -2.72695,-7.25375 -1.47427,-8.5477 -2.59403,-10.92867 -4.36986,-9.2917 -1.19919,1.10542 -1.2005,1.77571 -0.009,4.64793 1.47056,3.54514 1.1483,5.14377 -1.03691,5.14377 -1.47109,0 -2.52315,-3.02543 -2.54395,-7.31574 -0.008,-1.54866 -0.48642,-3.6991 -1.06424,-4.77876 -0.57781,-1.07966 -1.2205,-4.60127 -1.42818,-7.82579 -0.24121,-3.74499 -1.33347,-7.74905 -3.02376,-11.08468 -2.17342,-4.28904 -2.46263,-5.69292 -1.61891,-7.85847 0.56499,-1.45011 1.32715,-8.0803 1.69371,-14.73377 0.60364,-10.95693 0.4571,-12.68689 -1.55465,-18.35313 -1.91427,-5.3917 -2.3417,-9.45353 -3.09408,-29.40279 -1.06321,-28.19067 -0.96759,-24.97375 -0.95328,-32.07264 0.0143,-7.06772 -1.62636,-18.03087 -3.13797,-20.96906 -2.21739,-4.31003 -9.0774,-9.82034 -18.18258,-14.60517 -2.61652,-1.375 -6.87061,-4.0894 -9.45352,-6.03201 -4.39079,-3.30231 -5.53093,-4.96478 -9.57934,-13.96799 -0.8656,-1.925 -2.68437,-5.3 -4.04172,-7.5 -1.35734,-2.2 -3.8806,-6.925 -5.60724,-10.5 -6.28673,-13.01663 -12.23789,-22.22675 -15.67059,-24.25209 -2.29727,-1.35542 -3.05449,-2.33556 -2.40707,-3.11566 0.60712,-0.73153 0.45085,-2.03022 -0.4374,-3.63519 -2.19466,-3.96528 -1.70399,-6.36142 2.04704,-9.99706 1.925,-1.86578 3.5,-4.05406 3.5,-4.86283 0,-0.80878 -0.28474,-1.18576 -0.63275,-0.83775 -0.34802,0.34802 -1.47302,-0.43546 -2.5,-1.74106 -2.04108,-2.59481 -2.4393,-7.44916 -0.86725,-10.57193 0.55,-1.09254 1.45,-2.88032 2,-3.97286 0.55,-1.09254 1,-2.93163 1,-4.08686 0,-1.41551 0.97826,-2.46969 3,-3.23281 1.65,-0.62281 3.05625,-1.48372 3.125,-1.91314 0.59337,-3.70623 2.79075,-7.61924 4.60135,-8.19391 3.46521,-1.09981 4.9902,-5.55792 5.16075,-15.08685 0.13035,-7.28259 -0.22516,-9.75593 -1.86301,-12.96144 -1.11325,-2.1788 -2.02409,-4.91285 -2.02409,-6.07569 0,-1.16283 -1.125,-3.17113 -2.5,-4.46287 -2.72905,-2.56381 -3.28635,-5 -1.1438,-5 0.74591,0 3.45395,1.60176 6.01787,3.55946 l 4.66168,3.55945 3.83674,-3.80945 c 2.11021,-2.09521 4.13862,-5.05841 4.50756,-6.5849 0.76659,-3.17165 4.25364,-7.06899 5.58733,-6.24472 0.49193,0.30403 1.17707,0.0954 1.52254,-0.46353 0.34546,-0.55897 1.51948,-1.01631 2.60893,-1.01631 2.77188,0 9.53437,-3.60181 10.24643,-5.4574 0.74858,-1.95077 4.65472,-2.03411 4.65472,-0.0993 0,0.79381 -0.94302,2.10381 -2.0956,2.91111 -1.51529,1.06135 -1.90717,2.0615 -1.41514,3.61175 0.37425,1.17916 0.97977,1.97187 1.3456,1.76157 0.36583,-0.2103 2.14172,-1.01404 3.94642,-1.78609 2.20364,-0.94271 3.57343,-2.39521 4.17084,-4.42268 0.79925,-2.71246 0.95555,-2.80832 1.53951,-0.94425 0.3586,1.14467 2.18579,2.63008 4.07608,3.31361 2.30162,0.83228 3.63494,2.07091 4.06235,3.77388 0.61049,2.43235 0.8535,2.50783 6.00262,1.86449 4.19952,-0.5247 5.70817,-0.32869 6.93828,0.90141 1.99321,1.99321 6.80046,2.03422 8.42904,0.0719 0.84006,-1.0122 3.07495,-1.49502 6.87244,-1.48469 3.64947,0.01 5.13696,0.32596 4.23184,0.89908 -0.79583,0.50392 -1.12122,1.59909 -0.75706,2.54807 0.35126,0.91537 1.10004,1.37915 1.66395,1.03064 0.56392,-0.34852 2.53001,0.29629 4.3691,1.43291 2.68774,1.66111 3.2499,2.55781 2.86519,4.57028 -0.36157,1.89142 -0.0554,2.50371 1.25181,2.50371 3.14948,0 9.21253,4.16823 10.74864,7.38948 0.83162,1.74392 3.40014,4.47923 5.70782,6.07845 3.5797,2.48074 5.26275,2.93864 11.46215,3.1185 8.33416,0.24179 12.78091,2.14044 19.19534,8.19589 3.27829,3.09482 4.25515,4.84089 4.8216,8.61828 0.47436,3.16325 1.5172,5.43866 3.13878,6.84861 1.93232,1.68012 2.4284,3.07921 2.4284,6.84877 0,4.56762 0.14497,4.80293 4.04742,6.56966 3.93155,1.7799 4.03178,1.94687 3.50115,5.83236 l -0.54627,4 2.08226,-2.75 c 2.60927,-3.44603 5.19461,-3.48581 12.63693,-0.19447 3.17818,1.40555 5.99676,2.47193 6.26351,2.36975 0.26675,-0.10218 1.20237,1.11033 2.07914,2.69447 1.18457,2.14024 2.60152,3.0511 5.515,3.54521 2.15647,0.36572 5.94586,1.18248 8.42086,1.81502 2.475,0.63254 5.61452,0.93871 6.97671,0.68038 3.2888,-0.6237 8.27155,2.04719 15.25902,8.17926 4.41081,3.87084 6.77971,5.19011 10.2553,5.71131 4.46405,0.66942 4.53912,0.74495 6.10961,6.14728 3.29586,11.33734 1.4138,18.74564 -7.17839,28.25617 -1.84106,2.03783 -4.22509,5.75277 -5.29785,8.25541 -1.07276,2.50264 -2.84701,5.39175 -3.94279,6.42023 -1.77213,1.66331 -2.03041,3.43952 -2.33697,16.07134 -0.23343,9.61884 -0.74799,14.60428 -1.59464,15.45 -0.6875,0.68675 -1.25,3.12926 -1.25,5.4278 0,2.32263 -1.09848,6.57856 -2.47276,9.58037 -1.36001,2.97066 -2.61336,6.32253 -2.7852,7.44858 -0.17185,1.12606 -1.64661,3.65553 -3.27725,5.62105 -2.70497,3.2605 -3.4906,3.60423 -8.96479,3.92226 -5.71523,0.33204 -6.72912,0.69824 -9.96328,3.59858 -0.76662,0.6875 -1.82457,1.25 -2.35098,1.25 -2.09519,0 -5.94181,2.71323 -9.60904,6.77778 l -3.85962,4.27778 0.67416,8.08372 c 0.64967,7.79011 0.56657,8.25219 -2.28775,12.72222 -1.62905,2.55117 -3.27099,5.88975 -3.64877,7.41905 -0.51154,2.07078 -1.13735,2.63757 -2.45166,2.22042 -1.3275,-0.42133 -2.28275,0.48677 -3.85516,3.66489 -2.30424,4.65729 -2.12256,5.85053 0.56742,3.72664 0.97001,-0.76587 0.53089,0.10453 -0.97583,1.93423 -1.50672,1.82969 -2.73949,4.13151 -2.73949,5.11514 0,0.98363 -0.9,2.93258 -2,4.331 -1.1,1.39842 -2,3.18937 -2,3.97987 0,4.84805 -9.47065,6.23036 -18.94931,2.76579 -6.12902,-2.24024 -7.75122,-1.79122 -4.05069,1.1212 5.45815,4.29573 6,4.91121 6,6.8153 0,1.08603 0.9,2.45627 2,3.04497 2.43048,1.30075 2.632,5.42586 0.47617,9.74732 -1.72611,3.46006 -6.38664,5.70279 -14.0136,6.74359 -7.02084,0.95809 -8.41077,1.44666 -7.99491,2.81028 0.20108,0.65935 0.63068,3.0941 0.95467,5.41057 0.76417,5.46364 -1.40695,6.97235 -7.43472,5.16638 -2.20028,-0.65922 -4.26391,-0.93517 -4.58586,-0.61323 -0.32194,0.32195 -0.004,2.19405 0.70734,4.16022 1.17365,3.24567 1.64254,3.57487 5.0918,3.57487 4.786,0 5.00815,1.94791 0.66474,5.82876 -2.70996,2.42134 -2.98038,3.08831 -1.99708,4.92562 1.6631,3.10753 0.83057,6.68777 -1.64069,7.05565 -2.93568,0.43703 -4.42608,2.60063 -4.05012,5.8795 0.31374,2.73613 1.06771,3.2984 9.82226,7.32484 2.62476,1.20719 2.36464,4.99559 -0.55203,8.03994 -2.17431,2.26948 -2.59779,3.44661 -2.11263,5.87238 0.47583,2.37917 0.18141,3.26157 -1.36428,4.0888 -2.99463,1.60268 -2.39422,4.25339 2.27894,10.06104 7.8499,9.75558 13.39739,14.06961 21.02265,16.34834 1.52204,0.45485 1.59272,0.82609 0.5,2.62591 -1.01264,1.6679 -1.95471,1.98892 -4.61102,1.57122 -2.63873,-0.41492 -3.22163,-0.22075 -2.78138,0.92653 0.30634,0.79831 0.4586,1.41889 0.33837,1.37907 -0.12024,-0.0398 -3.74921,-0.9399 -8.06436,-2.00016 z m -5.34524,-9.79982 c 1.58485,-0.25001 -0.46107,-2.12762 -2.31835,-2.12762 -1.04021,0 -2.3299,-0.78375 -2.86598,-1.74167 -1.42635,-2.54875 -2.63947,-0.68357 -1.36899,2.10483 1.00431,2.20423 2.02444,2.4789 6.55332,1.76446 z m -9.30902,-4.31794 c 0,-1.31439 -2.27278,-0.49134 -2.77106,1.0035 -0.24358,0.73075 0.21359,0.95424 1.1875,0.58051 0.87096,-0.33422 1.58356,-1.04702 1.58356,-1.58401 z m 8.44721,-62.89509 c -0.32197,-0.52097 -1.01165,-0.68378 -1.53262,-0.3618 -0.52097,0.32197 -0.68378,1.01165 -0.3618,1.53262 0.32197,0.52097 1.01165,0.68378 1.53262,0.3618 0.52097,-0.32197 0.68378,-1.01165 0.3618,-1.53262 z M 746.2274,652.35797 c -2.57027,-1.87943 -3.10337,0.24943 -0.7229,2.8868 1.71899,1.90451 1.8785,1.92314 2.21136,0.25823 0.19731,-0.98688 -0.4725,-2.40214 -1.48846,-3.14503 z M 733.3152,496.20856 c 0.32607,-1.02735 0.1129,-3.13029 -0.47371,-4.67319 -0.96706,-2.54355 -1.21235,-2.65948 -2.6292,-1.24263 -1.10777,1.10777 -1.36377,2.4681 -0.87945,4.67319 0.75524,3.43858 3.0574,4.15693 3.98236,1.24263 z m 118.29253,382.61792 c 0.54381,-2.17187 0.49442,-2.18923 -1.42236,-0.5 -2.2022,1.94077 -4.87939,2.28528 -5.82825,0.75 -0.33992,-0.55 -0.0933,-1 0.54797,-1 0.6413,0 0.90699,-0.675 0.5904,-1.5 -0.46193,-1.20378 0.35625,-1.4973 4.14301,-1.48635 5.22441,0.0151 9.21862,0.84605 9.21862,1.91777 0,0.59482 -6.35254,4.06858 -7.44031,4.06858 -0.20485,0 -0.11893,-1.0125 0.19092,-2.25 z" style=""/></g></g><text font-family="'Helvetica Neue', Helvetica, Arial-Unicode, Arial, Sans-serif" font-weight="bold" font-size="5px" fill="#000000" y="115" x="0">Created by G</text><text font-family="'Helvetica Neue', Helvetica, Arial-Unicode, Arial, Sans-serif" font-weight="bold" font-size="5px" fill="#000000" y="120" x="0">from the Noun Project</text></svg>